<?xml version="1.0" encoding="UTF-8"?>
<svg width="1159px" height="1149px" viewBox="0 0 1159 1149" version="1.1" xmlns="http://www.w3.org/2000/svg" xmlns:xlink="http://www.w3.org/1999/xlink">
    <!-- Generator: Sketch 57.1 (83088) - https://sketch.com -->
    <title>Group</title>
    <desc>Created with Sketch.</desc>
    <g id="Page-1" stroke="none" stroke-width="1" fill="none" fill-rule="evenodd">
        <g id="Group" fill-rule="nonzero">
            <circle id="Oval" fill="#2563EB" cx="583.454545" cy="570.454545" r="545.454545"></circle>
            <g transform="translate(241.272727, 306.818182)" fill="#FFFFFF" id="Shape">
                <path d="M576.746364,208.585455 C547.791818,208.585455 523.657273,229.372727 518.324545,256.791818 L474.218182,226.557273 C471.327273,224.564545 467.304545,225.31 465.3,228.228182 C463.294545,231.159091 464.027273,235.157273 466.97,237.162727 L512.232727,268.194545 L466.97,299.226364 C469.03311,298.334202 471.412977,298.589401 473.240018,299.898712 C475.067059,301.208024 476.073584,303.379612 475.891818,305.62 L519.998182,275.385455 C525.330909,302.818182 549.466364,323.579091 578.42,323.579091 C611.293636,323.579091 638.037273,296.852727 638.037273,263.982727 C638.037273,231.137273 611.293636,204.386364 578.42,204.386364 L576.746364,208.585455 Z M576.746364,314.949091 C550.979091,314.949091 530.019091,293.981818 530.019091,268.207273 C530.019091,242.42 550.979091,221.440909 576.746364,221.440909 C602.539091,221.440909 623.512727,242.42 623.512727,268.207273 C623.512727,293.981818 602.539091,314.949091 576.746364,314.949091 L576.746364,314.949091 Z M576.750909,417.171818 C547.799091,417.171818 523.666364,437.943636 518.332727,465.36 L474.218182,435.141818 C471.313636,433.136364 467.317273,433.869091 465.3,436.811818 C463.294545,439.742727 464.027273,443.74 466.97,445.732727 L517.549091,480.372727 C519.463636,511.53 545.139091,536.363636 576.750909,536.363636 C609.621818,536.363636 636.363636,509.615455 636.363636,476.736364 C636.363636,443.894545 609.621818,417.171818 576.750909,417.171818 Z M576.750909,523.522727 C550.985455,523.522727 530.027273,502.545455 530.027273,476.748182 C530.027273,450.977273 550.985455,430.011818 576.750909,430.011818 C602.541818,430.011818 623.513636,450.977273 623.513636,476.748182 C623.513636,502.545455 602.540909,523.522727 576.75,523.522727 L576.750909,523.522727 Z M171.067273,228.224545 C169.049091,225.306364 165.052727,224.560909 162.135455,226.553636 L118.029091,256.769091 C112.682727,229.355455 88.5472727,208.585455 59.5927273,208.585455 C26.7309091,208.585455 -3.55271368e-15,235.318182 -3.55271368e-15,268.181818 C-3.55271368e-15,301.045455 26.7309091,327.778182 59.5927273,327.778182 C88.5472727,327.778182 112.682727,307.008182 118.029091,279.594545 L162.135455,309.81 C162.189704,306.346726 165.022197,303.572777 168.485848,303.590861 C171.9495,303.608945 174.752873,306.412318 174.771045,309.87597 C174.789041,313.339622 172.015092,316.172114 168.551818,316.226364 C170.556364,313.296364 169.810909,309.299091 166.880909,307.307273 L124.120909,268.181818 L169.384545,237.156364 C172.313636,235.151818 173.059091,231.154545 171.067273,228.224545 L171.067273,228.224545 Z M59.5927273,314.925455 C33.8254545,314.925455 12.8518182,293.950909 12.8518182,268.181818 C12.8518182,242.412727 33.8127273,221.438182 59.5927273,221.438182 C85.3727273,221.438182 106.333636,242.4 106.333636,268.181818 C106.320909,293.950909 85.3609091,314.925455 59.5927273,314.925455 Z M208.769091,206.636364 L254.226364,176.42 C259.736364,203.833636 284.597273,224.602727 314.439091,224.602727 C344.293636,224.602727 369.167273,203.833636 374.677273,176.407273 L420.134545,206.635455 C422.24,206.635455 424.307273,205.659091 425.591818,203.846364 C427.657273,200.916364 426.902727,196.919091 423.87,194.914545 L377.22,163.889091 L423.87,132.863636 C426.902727,130.858182 427.657273,126.861818 425.591818,123.930909 C423.525455,121.000909 419.406364,120.268182 416.399091,122.26 L370.941818,152.489091 C365.445455,125.061818 340.558182,104.292727 310.703636,104.292727 C278.133636,104.292727 251.656364,129.110909 249.683636,160.251818 L197.550909,194.914545 C194.530909,196.919091 193.762727,200.916364 195.829091,203.846364 C197.113636,205.646364 199.192727,206.635455 201.299091,206.635455 L208.769091,206.636364 Z M318.173636,117.132727 C344.742727,117.132727 366.359091,138.107273 366.359091,163.889091 C366.359091,189.657273 344.742727,210.632727 318.173636,210.632727 C291.617273,210.632727 270.014545,189.670909 270.014545,163.889091 C270.014545,138.094545 291.617273,117.132727 318.173636,117.132727 Z M470.594545,102.344545 L514.700909,72.1190909 C520.033636,99.5427273 544.169091,120.31 573.122727,120.31 C605.996364,120.31 632.74,93.5672727 632.74,60.7072727 C636.363636,26.73 609.62,0 576.746364,0 C545.131818,0 519.455455,24.8154545 517.54,55.9527273 L466.97,90.6118182 C464.027273,92.6163636 463.294545,96.6127273 465.3,99.5427273 L470.594545,102.344545 Z M576.733636,12.8636364 C602.526364,12.8636364 623.499091,33.8236364 623.499091,59.6027273 C623.499091,85.3809091 602.526364,106.353636 576.733636,106.353636 C550.966364,106.353636 530.006364,85.3809091 530.006364,59.6027273 C530.019091,33.8236364 550.966364,12.8636364 576.733636,12.8636364 Z M384.68,372.487273 L431.326364,341.461818 C434.359091,339.457273 435.114545,335.46 433.048182,332.542727 C430.981818,329.624545 426.862727,328.867273 423.857273,330.871818 L378.402727,361.100909 C372.905455,333.673636 348.02,312.879091 318.166364,312.879091 C288.340909,312.879091 263.454545,333.660909 257.957273,361.100909 L212.502727,330.871818 C209.47,328.853636 205.364545,329.599091 203.298182,332.542727 C201.232727,335.472727 202.000909,339.47 205.02,341.461818 L257.15,376.125455 C259.122727,407.265455 285.586364,432.070909 318.166364,432.070909 C348.02,432.070909 372.905455,411.301818 378.402727,383.887273 L423.87,414.103636 C425.976364,414.103636 428.042727,413.126364 429.327273,411.301818 C431.392727,408.370909 430.638182,404.374545 427.605455,402.381818 L380.945455,371.356364 L384.68,372.487273 Z M318.166364,419.205455 C291.611818,419.205455 270.01,398.243636 270.01,372.474545 C270.01,346.68 291.611818,325.705455 318.166364,325.705455 C344.734545,325.705455 366.35,346.68 366.35,372.474545 C366.35,398.256364 344.734545,419.205455 318.166364,419.205455 Z"></path>
            </g>
        </g>
    </g>
</svg>