<?xml version="1.0" encoding="UTF-8"?>
<svg width="2134px" height="1933px" viewBox="0 0 2134 1933" version="1.1" xmlns="http://www.w3.org/2000/svg" xmlns:xlink="http://www.w3.org/1999/xlink">
    <!-- Generator: Sketch 57.1 (83088) - https://sketch.com -->
    <title>Group</title>
    <desc>Created with Sketch.</desc>
    <g id="Page-2" stroke="none" stroke-width="1" fill="none" fill-rule="evenodd">
        <g id="Group" fill-rule="nonzero">
            <path d="M583.695361,947.641414 C583.695361,957.742391 580.665049,965.486529 574.941143,970.873717 C569.217238,976.260942 560.799738,978.954536 550.025326,978.954536 L532.516891,978.954536 L532.516891,917.338372 L552.045521,917.338372 C562.146535,917.338372 569.890636,920.031965 575.614542,925.419191 C581.001767,930.806378 583.695361,938.213799 583.695361,947.641414 L583.695361,947.641414 Z M570.227354,947.97817 C570.227354,934.846844 564.503449,928.11286 552.718919,928.11286 L545.648217,928.11286 L545.648217,968.180199 L551.372123,968.180199 C563.83005,968.180199 570.227354,961.446177 570.227354,947.97817 L570.227354,947.97817 Z" id="path5232" fill="#000000"></path>
            <polygon id="path5234" fill="#000000" points="638.577503 978.954536 603.223991 978.954536 603.223991 917.338372 638.577503 917.338372 638.577503 928.112784 616.018599 928.112784 616.018599 941.580791 636.894025 941.580791 636.894025 952.355203 616.018599 952.355203 616.018599 968.180123 638.577503 968.180123"></polygon>
            <path d="M693.122964,917.338372 L706.25429,917.338372 L685.378864,978.954536 L671.237459,978.954536 L650.362032,917.338372 L663.49332,917.338372 L674.941131,954.038718 C675.61453,956.058914 676.287966,958.752507 676.961364,961.446101 C677.634763,964.476413 677.971443,966.496608 678.308161,967.506725 C678.644917,964.813131 679.654958,960.436022 681.338435,954.038718 L693.122964,917.338372 Z" id="path5236" fill="#000000"></path>
            <path d="M1467.53377,948.314813 C1467.53377,958.415789 1464.84013,966.496608 1459.78963,971.883833 C1454.73912,977.271021 1447.33174,979.964615 1437.90412,979.964615 C1428.47651,979.964615 1421.06912,977.271021 1416.01862,971.883833 C1410.96811,966.496608 1408.27448,958.415789 1408.27448,948.314813 C1408.27448,938.213799 1410.96811,930.13298 1416.01862,924.745792 C1421.06912,919.358567 1428.47651,916.664973 1437.90412,916.664973 C1447.33174,916.664973 1454.73912,919.358567 1459.78963,924.745792 C1464.84013,930.13298 1467.53377,937.87708 1467.53377,948.314813 Z M1422.41592,948.314813 C1422.41592,955.048797 1423.76272,960.436022 1426.45631,963.803014 C1429.1499,967.170007 1432.85361,969.190202 1438.24084,969.190202 C1448.67853,969.190202 1453.72904,962.119499 1453.72904,948.314813 C1453.72904,934.510088 1448.67853,927.439386 1438.24084,927.439386 C1433.19033,927.439386 1429.1499,929.122863 1426.45631,932.826573 C1423.76272,936.193603 1422.41592,941.244073 1422.41592,948.314813 Z" id="path5238" fill="#000000"></path>
            <path d="M1529.48661,936.530284 C1529.48661,943.264306 1527.46641,948.314813 1523.42602,951.681805 C1519.3856,955.048797 1513.32501,957.068992 1505.58087,957.068992 L1499.85697,957.068992 L1499.85697,978.954536 L1486.72568,978.954536 L1486.72568,917.338372 L1506.59099,917.338372 C1513.99841,917.338372 1519.72231,919.021887 1523.7627,922.052161 C1527.46641,925.419191 1529.48661,930.13298 1529.48661,936.530284 Z M1499.85697,946.29458 L1504.23407,946.29458 C1508.2745,946.29458 1511.30478,945.621181 1513.32501,943.937704 C1515.34521,942.254189 1516.35528,939.897276 1516.35528,936.867002 C1516.35528,933.83669 1515.68189,931.479776 1513.99841,930.13298 C1512.31489,928.786183 1509.6213,927.776066 1506.25431,927.776066 L1499.85697,927.776066 L1499.85697,946.29458 Z" id="path5240" fill="#000000"></path>
            <path d="M1584.03207,961.782819 C1584.03207,967.506725 1582.01188,971.883833 1577.97145,974.914107 C1573.93106,978.281137 1568.54387,979.627934 1561.13645,979.627934 C1554.40243,979.627934 1548.67852,978.281137 1543.62802,975.924224 L1543.62802,963.803014 C1547.66844,965.82321 1551.37212,966.833326 1554.06575,967.843405 C1557.09606,968.516803 1559.45293,968.853522 1561.80985,968.853522 C1564.84016,968.853522 1566.86036,968.180123 1568.54387,967.170007 C1570.22735,966.159928 1570.90075,964.476413 1570.90075,962.119499 C1570.90075,960.772703 1570.56399,959.762624 1569.89067,958.752507 C1569.21727,957.742391 1568.20715,957.068992 1566.86036,956.058914 C1565.51356,955.048797 1562.81996,953.702 1558.77954,952.018485 C1555.07583,950.335008 1552.04555,948.651493 1550.36204,946.967978 C1548.67852,945.284501 1546.99505,943.600986 1545.98493,941.244073 C1544.97481,939.223877 1544.30141,936.530284 1544.30141,933.499972 C1544.30141,928.112784 1545.98493,923.735676 1549.68864,920.705364 C1553.39235,917.675052 1558.44286,915.991575 1565.17684,915.991575 C1568.54387,915.991575 1571.57414,916.328331 1574.26778,917.001654 C1577.29805,917.675052 1580.32836,918.685168 1583.35867,920.368683 L1578.98156,930.469698 C1575.61457,929.122863 1572.92094,928.112784 1570.90075,927.776066 C1568.88055,927.102668 1566.52364,927.102668 1564.50344,927.102668 C1562.14653,927.102668 1560.12633,927.776066 1558.77954,928.786183 C1557.43274,929.796261 1556.75934,931.479776 1556.75934,933.163291 C1556.75934,934.17337 1557.0961,935.183487 1557.43274,936.193603 C1558.10614,937.203682 1558.77954,937.87708 1560.12633,938.550479 C1561.13645,939.223877 1564.16676,940.907392 1568.54387,942.927588 C1574.26778,945.621181 1578.30817,948.314813 1580.32836,951.345087 C1582.34856,954.375399 1584.03207,958.079109 1584.03207,961.782819 Z" id="path5242" fill="#000000"></path>
            <path d="M1178.98158,966.496608 C1178.98158,962.456218 1178.64482,958.752507 1178.64482,954.712117 C1178.64482,958.752507 1178.64482,962.456218 1178.64482,966.496608 C1178.64482,966.496608 1178.64482,966.496608 1178.64482,966.496608 L1178.98158,966.496608 Z" id="path5246" fill="#000000"></path>
            <path d="M944.30142,989.392239 L939.924316,991.075741 L944.30142,989.392239 Z" id="polygon5248" fill="#000000"></path>
            <path d="M655.412539,636.867 C815.008496,655.048795 938.914223,790.402333 938.914223,954.712117 C938.914223,824.072368 983.69535,703.533633 1058.77952,608.247434 C963.156642,487.035339 818.712206,406.563943 655.412539,395.789531 L608.611178,516.328265 L655.412539,636.867 Z" id="path5250" fill="#F0F0F0"></path>
            <path d="M585.042157,1272.89393 C424.099404,1256.05892 298.84688,1120.03198 298.84688,954.712117 C298.84688,953.028602 298.84688,951.008406 298.84688,949.324891 L180.328341,995.452854 L58.7795276,948.314813 C58.7795276,950.335008 58.7795276,952.691884 58.7795276,954.712117 C58.7795276,1253.02861 292.112858,1496.79966 586.052274,1513.63468 L632.180199,1394.44276 L585.042157,1272.89393 Z" id="path5252" fill="#F0F0F0"></path>
            <path d="M300.193677,924.745792 C315.345198,762.119523 452.045533,634.510086 618.712192,634.510086 C622.752583,634.510086 626.456293,634.510086 630.496684,634.846842 L584.368759,516.328341 L631.5068,394.779528 C627.129692,394.779528 622.752583,394.779528 618.712192,394.779528 C319.722269,394.779528 75.2778458,629.122937 59.452926,924.40915 L180.328341,971.210511 L300.193677,924.745792 Z" id="path5254" fill="#F0F0F0"></path>
            <path d="M939.924301,991.075745 L939.924301,991.075745 C939.924301,991.075745 939.924301,990.738989 939.924301,990.738989 L939.924301,991.075745 Z" id="path5256" stroke="#FFFFFF" stroke-width="3.36700345" fill="#3FA9F5"></path>
            <path d="M1177.63474,990.065629 L1060.46304,944.611102 L945.984925,989.05555 L945.984925,989.05555 L944.30141,989.728948 L939.924301,991.412426 C939.924301,991.412426 939.924301,991.412426 939.924301,991.749182 C939.924301,991.749182 939.924301,991.749182 939.924301,991.749182 L936.557309,993.095978 C917.702078,1152.01854 782.685258,1275.25087 618.712192,1275.25087 C615.68188,1275.25087 612.651569,1275.25087 609.621295,1275.25087 L656.085937,1395.45289 L609.621295,1515.31821 C612.651569,1515.31821 615.68188,1515.31821 618.712192,1515.31821 C797.163381,1515.31821 956.085939,1431.81652 1058.77952,1301.85019 C1058.77952,1301.85019 1058.77952,1301.51351 1058.77952,1301.51351 C1127.12971,1214.30812 1170.22736,1106.90071 1177.63474,990.065667 L1177.63474,990.065629 Z" id="path5260" fill="#F0F0F0"></path>
            <path d="M938.914223,968.180161 L938.914223,968.180161 C938.914223,967.843405 938.914223,968.180161 938.914223,968.180161 Z" id="path5268" stroke="#FFFFFF" stroke-width="3.36700345" fill="#F15A24"></path>
            <path d="M1593.45969,403.196989 C1562.48325,397.809802 1530.83341,395.116208 1498.84689,395.116208 C1320.3957,395.116208 1161.47314,478.617878 1058.77952,608.58419 C983.69535,703.870389 938.914223,824.072444 938.914223,955.048873 C938.914223,959.425981 938.914223,963.803052 938.914223,967.843481 L1060.46304,920.705439 L1178.64486,966.496684 C1178.64486,962.456255 1178.64486,958.752545 1178.64486,954.712155 C1178.64486,777.944481 1322.07921,634.846842 1498.51017,634.846842 C1512.98829,634.846842 1527.1297,635.856921 1541.27114,637.540436 L1612.31488,532.153223 L1593.45969,403.196989 Z" id="path5272" fill="#F0F0F0"></path>
            <path d="M2050.36205,1052.01855 C2055.74924,1020.36871 2058.77955,988.045509 2058.77955,955.048873 C2058.77955,686.361992 1869.55395,461.782879 1616.69199,407.574098 L1635.8839,537.877128 L1565.51356,642.254225 C1710.29471,672.893986 1818.7122,801.513502 1818.7122,955.385553 C1818.7122,969.526958 1817.70212,983.6684 1816.01861,997.473087 L1924.43613,1070.87378 L2050.36205,1052.01855 Z" id="path5276" fill="#F0F0F0"></path>
            <path d="M1811.97822,1021.37883 C1781.33845,1166.15998 1652.71894,1275.25089 1498.84689,1275.25089 C1484.70548,1275.25089 1470.90076,1274.24079 1457.09603,1272.55729 L1383.35866,1382.6583 L1402.21389,1506.90073 C1433.52701,1512.28793 1465.85025,1515.31823 1498.84689,1515.31823 C1766.86037,1515.31823 1990.76608,1327.10274 2045.98494,1075.58757 L1919.38562,1094.10611 L1811.97822,1021.37883 Z" id="path5278" fill="#F0F0F0"></path>
            <path d="M1432.85361,1268.18019 C1299.18359,1240.23406 1196.48997,1129.12294 1180.66505,991.412501 L1177.63474,990.065704 C1170.22736,1107.23742 1127.12971,1214.64483 1058.77952,1301.17682 C1137.5674,1401.17682 1250.02532,1473.56739 1378.64487,1501.85022 L1359.78964,1376.93439 L1432.85361,1268.18019 Z" id="path5280" fill="#F0F0F0"></path>
            <path d="M272.873626,707.603618 C272.657438,709.653155 272.203957,711.63912 271.513186,713.561514 C270.82259,715.483907 269.882723,717.345148 268.693582,719.145237 C265.145513,724.516575 260.837028,727.782641 255.768127,728.943435 C250.684763,730.094629 245.5726,728.972298 240.431636,725.576443 C235.276285,722.171089 232.237796,717.909482 231.316171,712.791624 C230.380108,707.664317 231.686099,702.414956 235.234143,697.043542 C236.423207,695.243529 237.766275,693.64867 239.263346,692.258962 C240.760492,690.86923 242.409223,689.67272 244.209538,688.669432 L250.884108,693.07844 C248.815094,693.924852 247.041135,694.935183 245.562231,696.109432 C244.083403,697.283655 242.797015,698.698786 241.703069,700.354824 C239.743535,703.32135 239.152971,706.282043 239.931377,709.236903 C240.709809,712.191763 242.7695,714.772588 246.110452,716.979378 C249.436965,719.17672 252.611856,720.05357 255.635126,719.609929 C258.658395,719.166238 261.149796,717.461167 263.10933,714.494717 C264.203201,712.838679 264.999976,711.100134 265.499655,709.279082 C265.999182,707.45803 266.23248,705.429873 266.199548,703.19461 L272.873626,707.603618 Z" id="path5282" fill="#827B7B"></path>
            <path d="M271.66637,677.560871 C272.97517,675.933608 273.608203,674.526943 273.565469,673.340877 C273.536745,672.141381 272.828209,670.984569 271.439863,669.870439 C270.068171,668.767195 268.799825,668.333973 267.634823,668.570773 C266.480606,668.794017 265.24911,669.719359 263.940335,671.346799 L261.3119,674.614691 L269.037973,680.82884 L271.66637,677.560871 Z M274.403844,685.144569 L285.801312,694.311548 L279.554849,702.077948 L249.437267,677.854465 L258.9774,665.993022 C262.168228,662.025728 265.170294,659.656304 267.983598,658.884751 C270.807636,658.099693 273.658622,658.864518 276.536556,661.179227 C278.52693,662.780058 279.771516,664.578421 280.270313,666.574313 C280.779869,668.556676 280.558376,670.759536 279.605834,673.182893 C280.702427,672.315164 282.016367,671.810521 283.547655,671.668965 C285.076373,671.502918 287.054263,671.687195 289.481324,672.221797 L301.425387,674.885003 L294.773381,683.155743 L284.336442,680.807712 C282.235277,680.336077 280.600732,680.261621 279.432808,680.584342 C278.275718,680.894213 277.188814,681.68111 276.172096,682.945035 L274.403844,685.144569 Z" id="path5284" fill="#827B7B"></path>
            <polygon id="path5286" fill="#827B7B" points="277.768152 643.757797 296.466118 624.422603 301.881538 629.659479 290.11209 641.830049 295.285507 646.833009 306.353098 635.388184 311.76848 640.62506 300.700814 652.069885 307.065236 658.224581 319.230704 645.644575 324.645973 650.881413 305.552064 670.626043"></polygon>
            <path d="M344.189306,624.167523 L332.37352,634.329312 L335.10026,641.271624 L327.50443,647.804197 L313.156625,609.165633 L322.165583,601.41779 L358.22152,621.386886 L350.62569,627.919573 L344.189306,624.167523 Z M329.582036,627.272064 L337.609639,620.368077 L323.578937,612.152934 L329.582036,627.272064 Z" id="path5288" fill="#827B7B"></path>
            <path d="M361.611794,592.677217 C363.319788,591.475705 364.317381,590.299163 364.604575,589.147592 C364.905854,587.986093 364.545085,586.678376 363.52227,585.224442 C362.509407,583.784694 361.410446,583.017412 360.225388,582.922596 C359.05444,582.818029 357.614981,583.366439 355.907013,584.567825 L352.476903,586.980902 L358.181835,595.090294 L361.611794,592.677217 Z M362.144254,600.722282 L370.560014,612.68528 L362.408329,618.419919 L340.169891,586.808064 L352.619806,578.049727 C356.783914,575.120417 360.324424,573.674269 363.241337,573.711283 C366.172386,573.740007 368.700399,575.263913 370.825375,578.283 C372.295057,580.372146 372.993388,582.444688 372.920367,584.500625 C372.86317,586.546609 372.040896,588.602181 370.453545,590.66734 C371.747353,590.137022 373.149596,590.015699 374.660273,590.303371 C376.175183,590.566729 378.024833,591.291264 380.209224,592.476978 L390.949923,598.341368 L382.268915,604.448291 L372.889262,599.303976 C371.000707,598.269217 369.450559,597.745463 368.238818,597.732713 C367.041262,597.710036 365.779063,598.165406 364.452222,599.098823 L362.144254,600.722282 Z" id="path5290" fill="#827B7B"></path>
            <path d="M764.224647,516.684561 L779.754801,522.382048 C784.372477,524.076133 787.535274,526.403793 789.243192,529.365028 C790.973207,532.315957 791.14282,535.687119 789.75203,539.478514 C788.355141,543.286136 786.039752,545.764083 782.805863,546.912354 C779.594146,548.050319 775.679412,547.772297 771.061661,546.078288 L764.888483,543.813557 L760.269938,556.402899 L750.912962,552.970105 L764.224647,516.684561 Z M771.093976,526.898054 L767.375979,537.032706 L772.552609,538.931881 C774.367286,539.597456 775.929314,539.674054 777.238694,539.161676 C778.55397,538.6335 779.508829,537.559119 780.103274,535.938533 C780.69797,534.3183 780.661434,532.889387 779.993667,531.651793 C779.325951,530.4143 778.08493,529.462665 776.270606,528.796889 L771.093976,526.898054 Z" id="path5292" fill="#827B7B"></path>
            <polygon id="path5294" fill="#827B7B" points="803.557094 531.829733 812.585705 536.051201 799.40585 564.239182 815.258663 571.651478 812.067872 578.475718 787.186524 566.841954"></polygon>
            <path d="M841.48779,587.046779 L827.999715,579.240127 L822.343954,584.102452 L813.673038,579.083844 L845.424433,552.80373 L855.708603,558.75607 L848.737529,599.378735 L840.066613,594.360089 L841.48779,587.046779 Z M833.74282,574.278703 L842.906587,579.582666 L846.038909,563.628297 L833.74282,574.278703 Z" id="path5296" fill="#827B7B"></path>
            <polygon id="path5298" fill="#827B7B" points="875.558871 570.922143 884.591337 577.428184 880.50408 607.153941 895.997498 585.64397 903.66461 591.166502 881.075054 622.528228 872.042588 616.022187 876.129844 586.296429 860.636313 607.806401 852.969202 602.283793"></polygon>
            <polygon id="path5300" fill="#827B7B" points="914.099923 599.703472 934.332793 617.426282 929.369026 623.093003 916.633454 611.937387 911.891356 617.350956 923.867545 627.841299 918.903741 633.508096 906.927703 623.017753 901.093964 629.67762 914.257945 641.208505 909.294178 646.875302 888.633013 628.777186"></polygon>
            <path d="M936.94112,665.074861 L926.208245,653.775321 L919.409139,656.841501 L912.50946,649.577589 L950.392383,633.339264 L958.575627,641.954773 L940.411142,678.952606 L933.511577,671.688695 L936.94112,665.074861 Z M933.119111,650.638729 L940.411029,658.315706 L947.923369,643.896392 L933.119111,650.638729 Z" id="path5302" fill="#827B7B"></path>
            <path d="M969.253851,680.923101 C970.53816,682.56974 971.762462,683.508109 972.926758,683.738206 C974.101738,683.981608 975.390065,683.556789 976.791741,682.46375 C978.17981,681.381117 978.891987,680.245658 978.92827,679.057375 C978.978412,677.882723 978.359703,676.472065 977.072144,674.8254 L974.492994,671.518427 L966.674701,677.616128 L969.253851,680.923101 Z M961.244843,681.851655 L949.71135,690.847006 L943.581788,682.987932 L974.058651,659.217954 L983.420163,671.220978 C986.551275,675.235592 988.170261,678.700462 988.27712,681.615586 C988.394538,684.544417 986.99712,687.144506 984.084868,689.415851 C982.070733,690.986698 980.035155,691.786395 977.978135,691.814944 C975.931722,691.857778 973.838116,691.137803 971.697316,689.655019 C972.290601,690.921136 972.480963,692.315731 972.268402,693.838805 C972.079426,695.364777 971.446972,697.247876 970.371042,699.488103 L965.043231,710.504896 L958.515722,702.13551 L963.191375,692.513589 C964.131823,690.57638 964.578538,689.002332 964.53152,687.791447 C964.495741,686.594169 963.978638,685.355907 962.980213,684.076663 L961.244843,681.851655 Z" id="path5304" fill="#827B7B"></path>
            <polygon id="path5308" fill="#827B7B" points="1150.63202 666.682408 1157.18693 659.17449 1180.62733 679.639536 1192.13675 666.45677 1197.8116 671.411315 1179.74719 692.101999"></polygon>
            <polygon id="path5310" fill="#827B7B" points="1174.92811 639.790994 1181.95255 632.720291 1209.37204 659.960405 1202.3476 667.030956"></polygon>
            <path d="M1212.42253,624.941305 C1213.60774,623.91083 1214.27996,622.869016 1214.43918,621.815863 C1214.59817,620.76271 1214.23615,619.728165 1213.35313,618.712228 C1212.48124,617.709368 1211.51279,617.213519 1210.44777,617.224682 C1209.37136,617.222893 1208.24051,617.737236 1207.05523,618.767712 L1202.894,622.385438 L1208.2612,628.559031 L1212.42253,624.941305 Z M1223.76773,637.477961 C1225.27853,636.164449 1226.13424,634.860197 1226.33486,633.565205 C1226.54878,632.258924 1226.09505,630.961085 1224.97366,629.671686 C1223.87536,628.408367 1222.67672,627.79248 1221.37775,627.824027 C1220.06751,627.846704 1218.65044,628.518376 1217.12653,629.839044 L1212.71129,633.677721 L1219.35237,641.316487 L1223.76773,637.477961 Z M1221.64095,620.906093 C1223.6636,619.970886 1225.66693,619.750112 1227.65093,620.243768 C1229.63501,620.737551 1231.42532,621.90249 1233.02187,623.738584 C1235.4677,626.551812 1236.33998,629.475327 1235.6387,632.509129 C1234.93737,635.542931 1232.64607,638.747025 1228.76479,642.121413 L1216.28083,652.974817 L1190.92224,623.80654 L1202.21448,613.989217 C1206.26508,610.46763 1209.72777,608.532008 1212.60255,608.182351 C1215.49036,607.821658 1218.10626,608.989204 1220.45025,611.68499 C1221.68447,613.104707 1222.40541,614.604751 1222.61308,616.185123 C1222.80912,617.752493 1222.48492,619.326288 1221.6405,620.906508 L1221.64095,620.906093 Z" id="path5312" fill="#827B7B"></path>
            <polygon id="path5314" fill="#827B7B" points="1224.59741 595.483063 1246.4551 579.808001 1250.84529 585.929853 1237.08705 595.796537 1241.28112 601.644826 1254.21904 592.36654 1258.60927 598.488392 1245.67134 607.766678 1250.83092 614.961463 1265.05208 604.762861 1269.44238 610.884713 1247.12185 626.891617"></polygon>
            <path d="M1278.18299,580.332373 C1279.98693,579.280303 1281.08088,578.19277 1281.46483,577.069771 C1281.86344,575.938105 1281.61511,574.604486 1280.71984,573.068914 C1279.83299,571.548285 1278.80319,570.690395 1277.63046,570.495245 C1276.47269,570.291151 1274.99186,570.715239 1273.18796,571.76751 L1269.56521,573.880341 L1274.56031,582.445091 L1278.18299,580.332373 Z M1278.02954,588.393576 L1285.39822,601.028461 L1276.78868,606.049563 L1257.31716,572.662275 L1270.46633,564.993651 C1274.86428,562.428738 1278.51487,561.288669 1281.41807,561.573444 C1284.33615,561.849677 1286.72554,563.582918 1288.58625,566.773166 C1289.87298,568.979579 1290.39265,571.103951 1290.14527,573.146281 C1289.9127,575.179894 1288.91865,577.158149 1287.16311,579.081047 C1288.49738,578.662376 1289.90493,578.661116 1291.38575,579.077267 C1292.87274,579.468751 1294.65408,580.347831 1296.72977,581.714508 L1306.93332,588.470452 L1297.76472,593.817689 L1288.85622,587.894754 C1287.06243,586.703245 1285.56243,586.049677 1284.3562,585.934048 C1283.16485,585.809576 1281.86847,586.155944 1280.46707,586.973154 L1278.02954,588.393576 Z" id="path5316" fill="#827B7B"></path>
            <path d="M1330.69669,569.762999 L1316.51934,576.234269 L1317.20638,583.661154 L1308.09232,587.821204 L1305.06658,546.716007 L1315.87622,541.781985 L1344.94864,570.998262 L1335.83469,575.158313 L1330.69669,569.762999 Z M1315.80248,568.678918 L1325.4346,564.282231 L1314.24505,552.486288 L1315.80248,568.678918 Z" id="path5318" fill="#827B7B"></path>
            <path d="M1356.25499,544.391069 C1358.2314,543.716927 1359.51886,542.867302 1360.11736,541.842193 C1360.73211,540.811818 1360.75353,539.455447 1360.18161,537.773078 C1359.61337,536.107037 1358.77366,535.062363 1357.66248,534.639056 C1356.56788,534.210382 1355.03237,534.333091 1353.05596,535.007182 L1349.08689,536.361462 L1352.28886,545.745311 L1356.25499,544.391069 Z M1354.50971,552.262577 L1359.23314,566.105437 L1349.80046,569.324159 L1337.31868,532.744681 L1351.72511,527.828876 C1356.54353,526.184732 1360.34751,525.789406 1363.13705,526.642898 C1365.94285,527.490798 1367.94211,529.662451 1369.13482,533.157859 C1369.95967,535.57527 1370.04874,537.76048 1369.40204,539.713487 C1368.77154,541.660851 1367.40578,543.403365 1365.30476,544.941028 C1366.6955,544.794382 1368.07557,545.07098 1369.44497,545.770823 C1370.8251,546.448543 1372.39732,547.662691 1374.16163,549.413267 L1382.82699,558.05425 L1372.78177,561.481866 L1365.22105,553.913702 C1363.69843,552.39088 1362.35736,551.453443 1361.19785,551.101393 C1360.05467,550.743573 1358.71536,550.826596 1357.17991,551.350464 L1354.50971,552.262577 Z" id="path5320" fill="#827B7B"></path>
            <path d="M1765.07587,637.176846 C1763.04914,636.802546 1761.10428,636.196461 1759.24129,635.35859 C1757.37823,634.520896 1755.59546,633.439535 1753.893,632.114509 C1748.81293,628.160669 1745.89077,623.611907 1745.12652,618.468222 C1744.37287,613.31093 1745.88816,608.301179 1749.67239,603.438968 C1753.46722,598.563126 1757.95158,595.864215 1763.12547,595.342237 C1768.30995,594.80693 1773.44226,596.51602 1778.5224,600.469507 C1780.22479,601.794458 1781.71071,603.257135 1782.98013,604.857538 C1784.24963,606.457891 1785.3147,608.194395 1786.17535,610.06705 L1781.26224,616.379768 C1780.57879,614.25134 1779.70902,612.404373 1778.65293,610.838867 C1777.59691,609.273387 1776.28576,607.88116 1774.71948,606.662187 C1771.91391,604.478502 1769.00793,603.660146 1766.00154,604.207119 C1762.99522,604.753891 1760.26246,606.607258 1757.80326,609.76722 C1755.35465,612.913375 1754.23429,616.010723 1754.44219,619.059264 C1754.64973,622.107882 1756.15647,624.723995 1758.9624,626.907605 C1760.52868,628.126653 1762.20023,629.05585 1763.97706,629.695195 C1765.75388,630.334288 1767.75786,630.723932 1769.98898,630.864127 L1765.07587,637.176846 Z" id="path5322" fill="#827B7B"></path>
            <path d="M1805.07472,633.158036 C1802.87702,631.061255 1800.39818,630.246704 1797.63819,630.714383 C1794.8782,631.181709 1792.09241,632.889009 1789.28082,635.836285 C1786.48111,638.77066 1784.91251,641.62729 1784.575,644.406175 C1784.23721,647.185135 1785.16728,649.623019 1787.36519,651.719825 C1789.57542,653.828499 1792.06053,654.648997 1794.82052,654.181318 C1797.58051,653.713261 1800.36032,652.012222 1803.15996,649.0782 C1805.97155,646.131277 1807.54613,643.268335 1807.8837,640.489375 C1808.22149,637.71049 1807.28516,635.26671 1805.07472,633.158036 Z M1810.06051,627.932234 C1814.55581,632.221142 1816.85002,636.866912 1816.94312,641.869545 C1817.03615,646.872178 1814.92043,651.639863 1810.59595,656.1726 C1806.28321,660.69289 1801.6261,663.023989 1796.62461,663.165898 C1791.62312,663.307504 1786.87472,661.234043 1782.37941,656.945513 C1777.89663,652.66855 1775.60242,648.022779 1775.49679,643.008203 C1775.40377,638.00557 1777.51355,633.244109 1781.82614,628.723819 C1786.15077,624.191082 1790.81382,621.853759 1795.81531,621.71185 C1800.82932,621.581582 1805.57772,623.655044 1810.06051,627.932234 L1810.06051,627.932234 Z" id="path5324" fill="#827B7B"></path>
            <polygon id="path5326" fill="#827B7B" points="1831.90401 650.798679 1839.07851 659.309872 1827.87008 687.143258 1848.13858 670.057753 1854.22865 677.282395 1824.67691 702.193148 1817.50241 693.681955 1828.71083 665.848644 1808.44234 682.93415 1802.35227 675.709545"></polygon>
            <polygon id="path5328" fill="#827B7B" points="1862.32194 688.228134 1877.55141 710.398503 1871.34197 714.664002 1861.75578 700.708739 1855.82373 704.783674 1864.83828 717.906648 1858.62884 722.172109 1849.61429 709.049136 1836.10722 718.327574 1830.46393 710.112317"></polygon>
            <polygon id="path5330" fill="#827B7B" points="1883.75258 720.672997 1888.82059 729.255171 1855.5399 748.908223 1850.47189 740.3262"></polygon>
            <path d="M1878.49274,787.253495 C1876.31336,785.554673 1874.36328,783.637621 1872.64249,781.502339 C1870.9217,779.366957 1869.434,777.021079 1868.17939,774.464708 C1865.34332,768.685659 1864.70782,763.316601 1866.27288,758.357533 C1867.85348,753.390906 1871.40934,749.55039 1876.94049,746.835983 C1882.53354,744.091164 1887.7776,743.651542 1892.67267,745.517117 C1897.56774,747.382742 1901.48272,751.305779 1904.41762,757.286226 C1905.55057,759.594711 1906.41716,761.908953 1907.01737,764.228953 C1907.62496,766.564424 1907.96275,768.878591 1908.03074,771.171454 L1900.84958,774.695713 C1900.99915,772.21919 1900.87356,769.887272 1900.4728,767.699958 C1900.07991,765.528141 1899.41202,763.481653 1898.46915,761.560494 C1896.72038,757.997029 1894.37146,755.737388 1891.4224,754.781571 C1888.49638,753.833615 1885.18193,754.26826 1881.47907,756.085508 C1877.80712,757.887536 1875.42804,760.208544 1874.34182,763.048531 C1873.2556,765.88862 1873.5526,769.020651 1875.23281,772.444626 C1875.68868,773.374264 1876.16488,774.207536 1876.66139,774.944443 C1877.18096,775.689287 1877.72046,776.31849 1878.27988,776.832053 L1885.01951,773.52455 L1882.33925,768.063209 L1888.33518,765.120695 L1895.17829,779.064657 L1878.49274,787.253495 Z" id="path5332" fill="#827B7B"></path>
            <path d="M1915.59491,783.330572 L1919.02146,792.689817 L1897.26427,800.655247 C1894.26604,801.752922 1892.29666,803.025287 1891.35615,804.472343 C1890.43775,805.929703 1890.38516,807.768506 1891.19836,809.988752 C1892.01721,812.225225 1893.24477,813.595303 1894.88104,814.098988 C1896.5395,814.612828 1898.86784,814.320847 1901.86607,813.223045 L1923.62327,805.257577 L1927.04971,814.616821 L1905.29251,822.582289 C1900.15505,824.463158 1895.85862,824.575158 1892.40323,822.918289 C1888.94784,821.261118 1886.25301,817.790869 1884.31874,812.507543 C1882.39041,807.240418 1882.21043,802.858623 1883.77878,799.362157 C1885.34735,795.865665 1888.70037,793.176985 1893.83783,791.296116 L1915.59491,783.330572 Z" id="path5334" fill="#827B7B"></path>
            <path d="M1917.93381,845.680683 C1918.44908,847.704343 1919.19386,849.055171 1920.16816,849.733168 C1921.14652,850.428072 1922.497,850.556173 1924.21958,850.11747 C1925.92548,849.683077 1927.03349,848.928922 1927.54361,847.855007 C1928.05816,846.797924 1928.05763,845.257552 1927.542,843.233892 L1926.50716,839.169804 L1916.89898,841.617124 L1917.93381,845.680683 Z M1910.22558,843.316324 L1896.05156,846.926453 L1893.59157,837.268135 L1931.04606,827.728229 L1934.80324,842.479234 C1936.05985,847.412954 1936.15217,851.236299 1935.0802,853.949269 C1934.0123,856.678995 1931.68886,858.499656 1928.10988,859.411253 C1925.63465,860.041729 1923.44926,859.957319 1921.5537,859.158025 C1919.66245,858.37531 1918.0338,856.875618 1916.66776,854.658951 C1916.70354,856.056847 1916.31816,857.410573 1915.51162,858.720129 C1914.72633,860.042157 1913.39128,861.513124 1911.50646,863.13303 L1902.20507,871.085345 L1899.58536,860.799814 L1907.72953,853.863398 C1909.36845,852.466434 1910.40933,851.203984 1910.85218,850.076047 C1911.29946,848.964866 1911.32451,847.623234 1910.92731,846.051152 L1910.22558,843.316324 Z" id="path5336" fill="#827B7B"></path>
            <path d="M1913.68401,899.063675 L1911.34468,883.655789 L1904.01388,882.281326 L1902.51004,872.376318 L1942.87141,880.728431 L1944.655,892.476148 L1908.59142,912.431524 L1907.08758,902.526516 L1913.68401,899.063675 Z M1918.80741,885.036526 L1920.3967,895.50457 L1934.8071,887.975184 L1918.80741,885.036526 Z" id="path5338" fill="#827B7B"></path>
            <path d="M1931.09833,930.578057 C1931.20711,932.66355 1931.67257,934.134189 1932.49472,934.989975 C1933.31786,935.863071 1934.61702,936.253345 1936.39221,936.160797 C1938.15021,936.069332 1939.3846,935.547052 1940.09539,934.593956 C1940.80675,933.658246 1941.1084,932.147682 1941.00033,930.062265 L1940.78241,925.874094 L1930.88084,926.390416 L1931.09833,930.578057 Z M1924.00327,926.748224 L1909.39653,927.509307 L1908.87804,917.555997 L1947.476,915.545175 L1948.26823,930.74651 C1948.53302,935.830857 1947.87383,939.598088 1946.29066,942.048205 C1944.70828,944.515556 1942.07292,945.84532 1938.38458,946.037496 C1935.83378,946.170536 1933.70739,945.659165 1932.00542,944.503386 C1930.30432,943.364992 1929.00133,941.575058 1928.09645,939.133584 C1927.85743,940.511298 1927.2141,941.763203 1926.16644,942.889301 C1925.13719,944.031625 1923.53964,945.212236 1921.37378,946.431134 L1910.69383,952.405358 L1910.14206,941.805824 L1919.48821,936.600923 C1921.36916,935.552432 1922.63737,934.518567 1923.29284,933.499329 C1923.9491,932.497351 1924.235,931.186309 1924.15055,929.566202 L1924.00327,926.748224 Z" id="path5340" fill="#827B7B"></path>
            <polygon id="path5344" fill="#827B7B" points="254.776644 1166.44858 259.890722 1175.06348 240.592341 1198.44142 270.343649 1192.67178 275.457689 1201.28668 234.914584 1208.70604 228.849009 1198.48833"></polygon>
            <polygon id="path5346" fill="#827B7B" points="276.700889 1202.65762 292.349003 1224.53462 286.221784 1228.91732 276.372071 1215.14681 270.518489 1219.33371 279.780902 1232.283 273.653721 1236.6657 264.391271 1223.71641 257.190288 1228.86718 267.37139 1243.10089 261.244171 1247.48359 245.264669 1225.14349"></polygon>
            <path d="M292.164486,1251.22542 C293.521866,1252.81238 294.787315,1253.69446 295.960833,1253.87166 C297.145538,1254.06202 298.413356,1253.57945 299.764285,1252.42396 C301.102061,1251.27971 301.762181,1250.11323 301.744644,1248.92452 C301.739605,1247.74892 301.057803,1246.36764 299.699239,1244.78067 L296.973255,1241.59373 L289.438502,1248.03836 L292.164486,1251.22542 Z M284.205482,1252.51435 L273.090231,1262.02163 L266.611894,1254.44747 L295.983699,1229.32491 L305.87786,1240.89263 C309.187189,1244.76167 310.961085,1248.14986 311.199548,1251.05721 C311.449249,1253.97772 310.170735,1256.6383 307.364008,1259.03896 C305.422943,1260.69921 303.425589,1261.59002 301.371945,1261.7114 C299.329463,1261.84595 297.205431,1261.22132 294.99985,1259.83753 C295.649677,1261.07554 295.903019,1262.46008 295.759875,1263.99115 C295.640442,1265.52415 295.093683,1267.43391 294.119598,1269.72042 L289.295069,1280.96674 L282.396033,1272.90071 L286.632316,1263.07751 C287.484222,1261.09972 287.859327,1259.50707 287.757633,1258.29955 C287.667428,1257.1052 287.094943,1255.89159 286.040178,1254.65874 L284.205482,1252.51435 Z" id="path5348" fill="#827B7B"></path>
            <polygon id="path5350" fill="#827B7B" points="321.211025 1257.88809 328.199598 1264.99421 300.642609 1292.09519 293.654149 1284.98907"></polygon>
            <polygon id="path5352" fill="#827B7B" points="333.327208 1270.24685 353.378433 1288.17484 348.357104 1293.79075 335.735863 1282.5059 330.939038 1287.87093 342.807548 1298.48283 337.786332 1304.09863 325.917709 1293.48674 314.995252 1305.70273 307.565268 1299.05961"></polygon>
            <polygon id="path5354" fill="#827B7B" points="358.848657 1292.40252 366.68324 1298.56334 342.792279 1328.94542 334.957696 1322.7846"></polygon>
            <path d="M376.994774,1350.59773 C374.949218,1350.34581 372.971441,1349.85767 371.061444,1349.13329 C369.151422,1348.40905 367.306925,1347.43676 365.527951,1346.21643 C360.219529,1342.5749 357.029369,1338.20991 355.957469,1333.12147 C354.895372,1328.01871 356.106975,1322.92698 359.592279,1317.84627 C363.087309,1312.75124 367.401413,1309.78776 372.534591,1308.95581 C377.677545,1308.10969 382.903246,1309.50737 388.211693,1313.14883 C389.990667,1314.36923 391.561816,1315.74003 392.925142,1317.26122 C394.288367,1318.78242 395.455813,1320.45182 396.427479,1322.26944 L391.902402,1328.86587 C391.092298,1326.78231 390.113148,1324.99093 388.964953,1323.4917 C387.816833,1321.99248 386.424418,1320.68151 384.787706,1319.55879 C381.855952,1317.54766 378.906068,1316.9054 375.938055,1317.632 C372.970018,1318.3586 370.353551,1320.37281 368.088657,1323.67463 C365.833413,1326.96212 364.901129,1330.12116 365.291807,1333.15174 C365.682559,1336.18239 367.343775,1338.70328 370.275454,1340.71441 C371.912065,1341.83713 373.636386,1342.66421 375.448418,1343.19565 C377.260525,1343.72738 379.284285,1343.99611 381.5197,1344.00184 L376.994774,1350.59773 Z" id="path5356" fill="#827B7B"></path>
            <path d="M406.738257,1362.11543 L393.166011,1354.45593 L387.563504,1359.37945 L378.838503,1354.4555 L410.302087,1327.83157 L420.65032,1333.67163 L414.121753,1374.3677 L405.396714,1369.44376 L406.738257,1362.11543 Z M398.854805,1349.43236 L408.075794,1354.63616 L411.034219,1338.64871 L398.854805,1349.43236 Z" id="path5358" fill="#827B7B"></path>
            <path d="M440.558566,1362.73858 C442.460928,1363.59994 443.981054,1363.86187 445.118944,1363.52437 C446.272506,1363.19445 447.215876,1362.21966 447.949054,1360.59999 C448.675152,1358.99636 448.778207,1357.66002 448.25822,1356.59097 C447.753678,1355.52901 446.550339,1354.56739 444.648204,1353.7061 L440.827706,1351.9763 L436.738144,1361.00867 L440.558566,1362.73858 Z M433.897829,1367.28198 L427.864985,1380.60634 L418.785501,1376.49556 L434.727095,1341.28593 L448.593993,1347.5644 C453.232002,1349.66427 456.275606,1351.98009 457.724802,1354.51186 C459.189747,1357.05064 459.161149,1360.00228 457.639007,1363.36678 C456.585502,1365.69366 455.154623,1367.34764 453.346371,1368.32873 C451.553867,1369.31691 449.36547,1369.65219 446.78118,1369.33458 C447.895108,1370.17991 448.711637,1371.32635 449.230768,1372.77391 C449.7725,1374.21287 450.087385,1376.17423 450.175423,1378.65798 L450.576884,1390.88878 L440.907832,1386.51102 L440.577124,1375.8183 C440.51262,1373.66597 440.176632,1372.06462 439.569161,1371.01426 C438.98089,1369.97098 437.947656,1369.11477 436.469457,1368.44563 L433.897829,1367.28198 Z" id="path5360" fill="#827B7B"></path>
            <polygon id="path5362" fill="#827B7B" points="749.748338 1363.43538 774.973737 1354.10017 777.5883 1361.16529 761.710127 1367.04131 764.207903 1373.79071 779.139154 1368.26507 781.753718 1375.33008 766.822467 1380.85571 769.895223 1389.15898 786.307557 1383.08533 788.922121 1390.15034 763.162562 1399.68317"></polygon>
            <polygon id="path5364" fill="#827B7B" points="780.314852 1352.24209 791.731935 1346.71409 808.667923 1361.49528 807.622354 1339.02014 819.016193 1333.50341 835.859507 1368.29073 827.378285 1372.39722 815.058801 1346.95337 816.124742 1369.59082 810.439501 1372.34355 793.342619 1357.46768 805.661989 1382.91154 797.157447 1387.0293"></polygon>
            <path d="M824.226083,1330.1723 L838.36522,1321.58552 C842.56934,1319.03236 846.36134,1318.01162 849.74122,1318.52331 C853.126921,1319.01139 855.867948,1320.98126 857.964301,1324.43293 C860.069548,1327.89949 860.562562,1331.25479 859.443343,1334.49885 C858.32992,1337.71922 855.671198,1340.60599 851.46718,1343.15916 L845.846946,1346.57239 L852.80774,1358.03416 L844.288912,1363.20769 L824.226083,1330.1723 Z M836.494165,1331.1717 L842.097731,1340.39859 L846.810726,1337.53637 C848.462883,1336.53295 849.497,1335.35975 849.913076,1334.01675 C850.320307,1332.65894 850.075923,1331.24248 849.179923,1329.76738 C848.284049,1328.29227 847.144332,1327.42966 845.760773,1327.17954 C844.377189,1326.92979 842.859318,1327.30643 841.207161,1328.30948 L836.494165,1331.1717 Z" id="path5366" fill="#827B7B"></path>
            <path d="M888.016912,1325.85991 L875.41695,1335.0313 L877.57249,1342.17155 L869.472547,1348.06754 L858.30117,1308.39384 L867.908049,1301.40108 L902.2282,1324.22489 L894.128257,1330.12077 L888.016912,1325.85991 Z M873.206115,1327.77103 L881.766594,1321.54001 L868.447274,1312.21543 L873.206115,1327.77103 Z" id="path5368" fill="#827B7B"></path>
            <path d="M920.597498,1308.99897 L920.016736,1309.51531 C915.259066,1313.74862 910.388477,1315.72604 905.404969,1315.44758 C900.421511,1315.16919 895.841781,1312.68336 891.665781,1307.99011 C887.501397,1303.3098 885.552673,1298.47145 885.819608,1293.47504 C886.099444,1288.46711 888.553744,1283.90389 893.182506,1279.78537 C897.862896,1275.62091 902.675495,1273.69512 907.620301,1274.00801 C912.577983,1274.3093 917.161996,1276.82593 921.372339,1281.5579 C924.26335,1284.80704 926.056597,1288.22443 926.752081,1291.81007 C927.460566,1295.38419 927.040232,1298.92306 925.491079,1302.42669 L937.094531,1303.74524 L929.996692,1310.06074 L920.597498,1308.99897 Z M897.98432,1285.18111 C895.715041,1287.20026 894.70078,1289.60432 894.941536,1292.39329 C895.181914,1295.18227 896.65598,1298.09816 899.363734,1301.14098 C902.117145,1304.23547 904.840496,1306.06292 907.533788,1306.62335 C910.21569,1307.17083 912.717032,1306.41213 915.037813,1304.34725 C917.319967,1302.31666 918.340679,1299.90687 918.099948,1297.1179 C917.85957,1294.32899 916.391186,1291.41954 913.694796,1288.38953 C910.987344,1285.34672 908.262607,1283.54363 905.520585,1282.98026 C902.778487,1282.41705 900.266399,1283.15066 897.98432,1285.18111 L897.98432,1285.18111 Z" id="path5370" fill="#827B7B"></path>
            <path d="M910.974178,1264.41549 L917.715419,1257.07439 L934.781082,1272.74549 C937.13278,1274.90504 939.167312,1276.07038 940.884679,1276.24149 C942.601013,1276.38821 944.25879,1275.59083 945.858008,1273.84935 C947.468868,1272.09514 948.122361,1270.37556 947.818487,1268.69063 C947.51363,1266.98136 946.185341,1265.04695 943.833618,1262.88739 L926.767879,1247.21629 L933.50912,1239.87508 L950.574859,1255.54629 C954.604566,1259.24665 956.676566,1263.01209 956.790859,1266.84263 C956.905253,1270.67317 955.059684,1274.66051 951.254153,1278.80464 C947.460415,1282.93596 943.650349,1285.10758 939.823955,1285.31948 C935.997561,1285.53131 932.069548,1283.78705 928.039917,1280.0867 L910.974178,1264.41549 Z" id="path5372" fill="#827B7B"></path>
            <polygon id="path5374" fill="#827B7B" points="937.467986 1234.91077 953.833001 1213.56472 959.811533 1218.14816 949.510619 1231.58449 955.22209 1235.96321 964.908717 1223.32813 970.88725 1227.91157 961.200623 1240.54665 968.226878 1245.93338 978.874374 1232.04512 984.852944 1236.62856 968.141423 1258.42654"></polygon>
            <polygon id="path5376" fill="#827B7B" points="954.964327 1212.09706 974.457769 1182.28274 980.763079 1186.40534 973.750468 1197.1307 999.794702 1214.15911 994.340465 1222.50102 968.296308 1205.47261 961.269523 1216.21965"></polygon>
            <path d="M1012.23343,1178.52546 L1004.76569,1192.20407 L1009.76767,1197.73678 L1004.96695,1206.5302 L977.902771,1175.44446 L983.596629,1165.01506 L1024.38064,1170.97019 L1019.57992,1179.76372 L1012.23343,1178.52546 Z M999.662569,1186.58665 L1004.73613,1177.29331 L988.708667,1174.56012 L999.662569,1186.58665 Z" id="path5378" fill="#827B7B"></path>
            <path d="M1012.38631,1144.69858 C1013.22111,1142.78442 1013.46193,1141.2608 1013.10877,1140.1277 C1012.76239,1138.97879 1011.77457,1138.04905 1010.14532,1137.33847 C1008.53166,1136.63499 1007.194,1136.55054 1006.13233,1137.08513 C1005.07751,1137.60398 1004.13274,1138.8206 1003.29802,1140.73497 L1001.62154,1144.57921 L1010.70998,1148.5425 L1012.38631,1144.69858 Z M1017.0219,1151.29544 L1030.42906,1157.14215 L1026.44502,1166.27801 L991.016976,1150.82805 L997.10175,1136.87516 C999.136875,1132.20838 1001.41008,1129.13283 1003.92138,1127.64849 C1006.43955,1126.14833 1009.39134,1126.13763 1012.77674,1127.61636 C1015.11808,1128.63738 1016.79182,1130.04507 1017.79795,1131.83943 C1018.81102,1133.61805 1019.17675,1135.80158 1018.89515,1138.39003 C1019.72496,1137.26452 1020.85995,1136.4321 1022.30013,1135.89279 C1023.73136,1135.331 1025.68809,1134.98892 1028.17034,1134.86654 L1040.3945,1134.29437 L1036.15168,1144.02354 L1025.46461,1144.50339 C1023.31343,1144.60072 1021.71692,1144.95887 1020.67508,1145.57784 C1019.64009,1146.18113 1018.79838,1147.22617 1018.14994,1148.71294 L1017.0219,1151.29544 Z" id="path5380" fill="#827B7B"></path>
            <polygon id="path5384" fill="#827B7B" points="1535.49787 1370.73118 1548.04643 1368.87524 1559.77979 1388.04921 1565.51186 1366.29213 1578.03468 1364.44005 1583.68953 1402.67442 1574.36786 1404.05309 1570.23173 1376.08795 1564.47124 1398.00618 1558.22262 1398.93044 1546.36409 1379.6181 1550.5001 1407.58323 1541.15276 1408.96566"></polygon>
            <path d="M1602.30465,1364.96874 C1599.36476,1365.73248 1597.36672,1367.41058 1596.31055,1370.00304 C1595.2544,1372.59542 1595.24003,1375.8627 1596.26746,1379.80488 C1597.2872,1383.73031 1598.88927,1386.56835 1601.07366,1388.31898 C1603.25805,1390.06961 1605.82019,1390.56305 1608.76008,1389.79931 C1611.71676,1389.03127 1613.72317,1387.35102 1614.77932,1384.75856 C1615.83547,1382.16611 1615.85336,1378.90717 1614.83299,1374.98174 C1613.80889,1371.03956 1612.20465,1368.19315 1610.02025,1366.44252 C1607.83586,1364.69196 1605.26534,1364.2007 1602.3087,1364.96874 L1602.30465,1364.96874 Z M1600.48866,1357.97812 C1606.50214,1356.41593 1611.65964,1356.91273 1615.96114,1359.46854 C1620.26267,1362.02436 1623.20104,1366.33406 1624.77625,1372.39765 C1626.34705,1378.4445 1625.87561,1383.63105 1623.36195,1387.95732 C1620.84821,1392.28359 1616.5846,1395.22779 1610.57112,1396.78992 C1604.57437,1398.34776 1599.4169,1397.85095 1595.09872,1395.2995 C1590.79714,1392.74369 1587.86095,1388.44236 1586.29015,1382.39551 C1584.71492,1376.33192 1585.18417,1371.13699 1587.69791,1366.81072 C1590.22833,1362.48016 1594.49191,1359.53596 1600.48866,1357.97812 Z" id="path5386" fill="#827B7B"></path>
            <polygon id="path5388" fill="#827B7B" points="1623.4855 1352.4059 1633.93809 1348.57723 1656.255 1368.63424 1647.1375 1343.74248 1656.01003 1340.49263 1669.30337 1376.78497 1658.85078 1380.61364 1636.53387 1360.55662 1645.65138 1385.44839 1636.77886 1388.69824"></polygon>
            <polygon id="path5390" fill="#827B7B" points="1662.43643 1337.42322 1671.53471 1333.35409 1687.31455 1368.63639 1678.21627 1372.70553"></polygon>
            <polygon id="path5392" fill="#827B7B" points="1674.281 1332.4601 1705.85496 1315.96854 1709.34269 1322.64591 1697.9843 1328.5785 1712.39052 1356.15986 1703.5562 1360.77422 1689.14999 1333.19286 1677.76873 1339.13747"></polygon>
            <path d="M1725.70758,1311.06981 C1723.15127,1312.71038 1721.77453,1314.92687 1721.57737,1317.71928 C1721.38055,1320.51161 1722.38193,1323.6217 1724.5815,1327.04954 C1726.77205,1330.46285 1729.17765,1332.66152 1731.7983,1333.64554 C1734.41895,1334.62956 1737.00747,1334.30144 1739.56385,1332.66116 C1742.1347,1331.01129 1743.5187,1328.79015 1743.71587,1325.99774 C1743.91268,1323.20541 1742.91595,1320.10258 1740.72568,1316.68927 C1738.52584,1313.26143 1736.11559,1311.0555 1733.49493,1310.07148 C1730.87428,1309.08745 1728.2785,1309.42023 1725.70758,1311.06981 Z M1721.80656,1304.99123 C1727.03548,1301.63553 1732.09157,1300.50294 1736.97484,1301.59345 C1741.85803,1302.68397 1745.99146,1305.86548 1749.37514,1311.13798 C1752.74952,1316.39589 1753.91529,1321.47166 1752.87244,1326.3653 C1751.82959,1331.25894 1748.69374,1335.38361 1743.46489,1338.73931 C1738.25049,1342.08571 1733.19439,1343.2183 1728.2966,1342.13709 C1723.41341,1341.04658 1719.28463,1337.87237 1715.91025,1332.61446 C1712.52664,1327.34196 1711.35622,1322.25888 1712.399,1317.36524 C1713.45638,1312.4623 1716.59223,1308.33763 1721.80656,1304.99123 L1721.80656,1304.99123 Z" id="path5394" fill="#827B7B"></path>
            <path d="M1763.63773,1297.1779 C1765.27872,1295.88643 1766.21169,1294.65805 1766.43662,1293.49275 C1766.67493,1292.31679 1766.2445,1291.03033 1765.14533,1289.63337 C1764.05667,1288.25002 1762.91814,1287.54284 1761.72972,1287.51186 C1760.55484,1287.46892 1759.14686,1288.09379 1757.5058,1289.38648 L1754.21021,1291.98011 L1760.34204,1299.77154 L1763.63773,1297.1779 Z M1764.60064,1305.18295 L1773.64633,1316.67693 L1765.81411,1322.84075 L1741.91113,1292.46811 L1753.87303,1283.05423 C1757.87389,1279.90557 1761.33168,1278.27144 1764.24639,1278.15186 C1767.17463,1278.02161 1769.78079,1279.40766 1772.06487,1282.30998 C1773.64454,1284.31718 1774.45312,1286.34924 1774.49062,1288.40617 C1774.54071,1290.45237 1773.82989,1292.54909 1772.35815,1294.69634 C1773.62171,1294.09734 1775.01544,1293.90089 1776.53936,1294.107 C1778.0662,1294.28877 1779.95206,1294.913 1782.19692,1295.97968 L1793.23692,1301.25917 L1784.89619,1307.82329 L1775.25397,1303.18971 C1773.31262,1302.25779 1771.7366,1301.81799 1770.52593,1301.8703 C1769.32886,1301.91324 1768.09289,1302.4357 1766.81802,1303.43769 L1764.60064,1305.18295 Z" id="path5396" fill="#827B7B"></path>
            <polygon id="path5398" fill="#827B7B" points="1771.06471 1269.04982 1790.65219 1250.61633 1795.81499 1256.10235 1783.48563 1267.70539 1788.41774 1272.94623 1800.01197 1262.03516 1805.17477 1267.52118 1793.58054 1278.43225 1799.64817 1284.87979 1812.39232 1272.88643 1817.55522 1278.37246 1797.55285 1297.19626"></polygon>
            <path d="M1834.0675,1249.91041 L1823.70133,1261.54737 L1827.32336,1268.06737 L1820.65941,1275.54824 L1801.32151,1239.14995 L1809.22523,1230.27731 L1847.60785,1245.29616 L1840.944,1252.77703 L1834.0675,1249.91041 Z M1819.99986,1254.92184 L1827.04264,1247.01566 L1812.04762,1240.73075 L1819.99986,1254.92184 Z" id="path5400" fill="#827B7B"></path>
            <path d="M1841.78078,1217.002 C1843.02215,1215.32272 1843.59729,1213.89141 1843.50619,1212.70808 C1843.42533,1211.51086 1842.67021,1210.38392 1841.24082,1209.32726 C1839.82519,1208.28083 1838.54019,1207.89971 1837.38584,1208.1839 C1836.24173,1208.45441 1835.04902,1209.42921 1833.80772,1211.10827 L1831.31477,1214.48072 L1839.28794,1220.37445 L1841.78078,1217.002 Z M1844.82539,1224.46774 L1856.5873,1233.16218 L1850.66287,1241.17689 L1819.58217,1218.20215 L1828.63054,1205.96136 C1831.65689,1201.86725 1834.55976,1199.37735 1837.33915,1198.49166 C1840.12884,1197.59208 1843.0087,1198.24 1845.97874,1200.43541 C1848.03273,1201.95367 1849.34961,1203.69972 1849.92936,1205.67356 C1850.51977,1207.63352 1850.38845,1209.84357 1849.53539,1212.3037 C1850.59563,1211.39196 1851.88788,1210.83414 1853.41216,1210.63025 C1854.93285,1210.40197 1856.91661,1210.50574 1859.36343,1210.94157 L1871.40627,1213.11537 L1865.0971,1221.65051 L1854.57302,1219.73027 C1852.4544,1219.34453 1850.81823,1219.33735 1849.66453,1219.70872 C1848.52099,1220.06512 1847.46704,1220.89571 1846.5027,1222.20049 L1844.82539,1224.46774 Z" id="path5402" fill="#827B7B"></path>
        </g>
    </g>
</svg>