<?xml version="1.0" encoding="UTF-8"?>
<svg width="266px" height="100px" viewBox="0 0 266 100" version="1.1" xmlns="http://www.w3.org/2000/svg" xmlns:xlink="http://www.w3.org/1999/xlink">
    <!-- Generator: Sketch 57.1 (83088) - https://sketch.com -->
    <title>Slice</title>
    <desc>Created with Sketch.</desc>
    <g id="Page-2" stroke="none" stroke-width="1" fill="none" fill-rule="evenodd">
        <g id="Group">
            <rect id="Rectangle" fill="#A7ADB8" fill-rule="nonzero" x="0" y="0" width="266" height="100"></rect>
            <g transform="translate(23.000000, 28.000000)" fill="#FFFFFF">
                <path d="M120.88,14.839 C117.593,14.488 114.749,15.484 112.345,18.375 L112.345,0.644 L103.64,1.698 L103.64,42.738 L112.345,42.738 L112.345,40.302 C113.519,41.14 114.661,42.149 115.997,42.627 C121.069,44.445 127.757,42.963 130.097,36.179 C131.599,31.827 131.56,27.365 130.429,22.964 C129.175,18.075 125.921,15.376 120.88,14.839 L120.88,14.839 Z M122.181,32.613 C121.798,35.319 119.644,36.737 117.087,36.538 C116.448,36.488 115.87,36.357 115.351,36.154 C113.29,34.971 112.667,32.99 112.486,31.746 C112.484,31.747 112.482,31.747 112.482,31.748 C112.341,29.823 112.189,25.798 113.128,23.896 C113.925,22.438 115.316,21.644 117.161,21.583 C119.782,21.497 121.765,22.797 122.155,25.457 C122.501,27.801 122.517,30.271 122.181,32.613 Z" id="Shape"></path>
                <path d="M151.73,15.346 C148.705,14.537 145.65,14.547 142.632,15.351 C138.112,16.554 135.083,19.414 134.107,23.963 C133.574,26.445 133.468,29.084 133.609,31.629 C133.931,37.451 137.531,41.598 143.119,42.886 C143.197,42.905 143.279,42.919 143.359,42.937 L143.357,42.937 C143.357,42.937 143.373,42.94 143.398,42.945 C143.613,42.988 143.828,43.028 144.044,43.061 C144.116,43.067 144.19,43.073 144.261,43.08 L144.267,43.08 C144.538,43.13 144.863,43.167 145.205,43.194 C146.299,43.31 147.691,43.393 148.853,43.256 C148.861,43.256 148.865,43.254 148.871,43.253 C148.93,43.252 148.99,43.252 149.049,43.248 C154.819,42.948 159.197,39.31 160.475,33.729 C161.176,30.668 161.176,27.592 160.498,24.529 C159.437,19.721 156.521,16.628 151.73,15.346 L151.73,15.346 Z M152.098,32.172 C152.069,32.353 152.039,32.532 151.998,32.71 C151.42,35.278 149.555,36.668 147.068,36.552 C144.394,36.43 142.56,34.867 142.302,32.195 C142.116,30.243 142.101,28.25 142.263,26.297 C142.517,23.214 144.445,21.528 147.337,21.585 C149.714,21.631 151.407,22.978 152.011,25.263 C152.559,27.562 152.152,31.649 152.098,32.172 L152.098,32.172 Z" id="Shape"></path>
                <path d="M21.054,15.202 L14.841,15.202 L14.841,11.07 C15.295,7.164 21.747,7.906 21.747,7.906 L21.749,7.639 L21.747,7.609 L21.747,1.193 L21.746,1.193 L21.746,1.192 L21.741,1.192 C21.519,1.139 8.907,-1.854 6.402,7.745 C6.402,7.747 6.402,7.75 6.399,7.752 C6.394,7.773 6.388,7.794 6.383,7.815 C5.989,9.015 6.016,14.511 6.021,15.202 L0.636,15.202 L0.636,22.551 L6.355,22.551 L6.355,42.541 L14.683,42.541 L14.683,22.551 L21.053,22.551 L21.77,15.202 L21.054,15.202 L21.054,15.202 Z" id="Path"></path>
                <path d="M40.915,18.718 C40.813,18.605 40.712,18.496 40.625,18.405 L40.625,18.404 C40.611,18.39 40.6,18.378 40.586,18.364 C40.465,18.238 40.38,18.154 40.38,18.154 C38.419,16.16 37.679,15.664 36.143,15.211 C30.236,13.471 24.485,16.564 22.664,22.507 C21.545,26.159 21.529,29.918 22.185,33.616 C23.602,41.625 29.559,44.307 35.908,42.985 C37.856,42.579 39.304,41.366 40.647,39.677 C40.647,39.677 40.768,39.529 40.916,39.241 L40.916,42.765 L49.04,42.765 L49.04,15.233 L40.916,15.233 L40.916,18.718 L40.915,18.718 Z M40.2,32.573 C39.928,35.119 37.868,36.648 35.433,36.552 C32.938,36.455 31.287,35.119 30.748,32.725 C30.102,29.319 30.858,25.272 30.922,24.944 C31.574,22.658 33.237,21.527 35.677,21.584 C38.073,21.638 39.92,23.056 40.19,25.538 C40.443,27.86 40.449,30.25 40.2,32.573 L40.2,32.573 Z" id="Shape"></path>
                <path d="M73.852,40.792 C73.475,39.413 73.046,38.053 72.631,36.739 L72.239,35.278 C72.239,35.278 62.057,40.166 60.469,30.878 C60.322,29.345 60.367,27.763 60.578,26.25 C60.974,23.395 62.716,21.866 65.487,21.604 C66.423,21.515 67.397,21.56 68.324,21.717 C69.586,21.93 70.818,22.31 72.199,22.651 C72.679,21.182 73.17,19.729 73.627,18.266 C73.699,18.037 73.759,17.839 73.806,17.662 L73.807,17.662 L74.036,16.783 C73.979,16.666 73.84,16.545 73.654,16.427 L73.654,16.428 C73.42,16.232 73.021,16.069 72.398,15.841 C72.149,15.75 71.899,15.669 71.649,15.591 C71.425,15.52 71.279,15.478 71.279,15.478 L71.28,15.478 C68.605,14.713 65.859,14.654 63.069,14.948 C57.189,15.569 53.198,19.039 52.091,24.767 C51.51,27.781 51.537,30.832 52.204,33.855 C53.203,38.382 55.947,41.307 60.408,42.615 C63.319,43.468 66.302,43.511 69.27,43.048 C70.518,42.853 72.308,42.206 73.593,41.745 L74.082,41.573 L73.851,40.79 L73.852,40.792 L73.852,40.792 Z" id="Path"></path>
                <path d="M100.66,30.021 C100.621,28.115 100.647,26.2 100.377,24.327 C99.634,19.191 96.507,15.941 91.45,15.092 C89.52,14.769 87.479,14.812 85.518,14.999 C80.151,15.511 76.077,18.854 75.242,23.885 C74.735,26.937 74.67,30.176 75.08,33.241 C75.699,37.852 77.944,40.789 81.828,42.199 L81.83,42.199 C81.847,42.2 81.864,42.203 81.881,42.205 C81.879,42.207 81.88,42.207 81.879,42.208 C83.652,42.738 92.329,45.007 99.978,41.164 L99.671,40.038 C99.668,40.04 99.663,40.04 99.66,40.04 C99.306,38.538 98.88,37.052 98.479,35.563 L98.436,35.417 C98.436,35.417 98.277,35.474 97.995,35.564 C97.989,35.565 97.981,35.565 97.975,35.566 C97.641,35.653 97.311,35.755 96.983,35.865 C96.922,35.885 96.862,35.904 96.801,35.922 C95.643,36.248 93.988,36.65 92.24,36.875 C90.773,37.023 89.291,37.029 87.795,36.901 C85.366,36.499 83.507,35.198 83.596,32.122 L84.984,32.122 C89.746,32.122 94.507,32.122 99.27,32.121 C99.383,32.121 99.498,32.122 99.611,32.12 L99.61,32.122 C99.61,32.122 100.633,32.109 100.676,32.099 C100.676,32.099 100.675,31.829 100.676,31.796 L100.66,30.021 L100.66,30.021 Z M92.83,26.267 L83.424,26.267 C83.473,24.396 83.707,22.657 85.37,21.598 C87.136,20.476 89.087,20.434 90.903,21.44 C92.739,22.454 92.883,24.286 92.83,26.267 Z" id="Shape"></path>
                <polygon id="Path" points="219.36 15.52 210.13 15.52 202.11 28.058 202.11 1.896 202.11 1.724 202.11 0.669 193.4 1.724 193.4 42.765 202.11 42.765 202.11 30.205 210.13 42.783 219.36 42.783 210.66 29.129"></polygon>
                <path d="M181.42,15.342 C178.395,14.532 175.338,14.542 172.32,15.346 C167.802,16.55 164.773,19.409 163.797,23.957 C163.264,26.44 163.158,29.078 163.299,31.624 C163.619,37.446 167.221,41.594 172.807,42.881 C172.887,42.9 172.969,42.914 173.049,42.932 L173.047,42.932 C173.047,42.932 173.061,42.935 173.086,42.94 C173.301,42.983 173.518,43.023 173.734,43.055 C173.806,43.062 173.879,43.069 173.951,43.073 C173.953,43.075 173.955,43.075 173.957,43.075 C174.23,43.125 174.553,43.163 174.893,43.19 C175.989,43.306 177.383,43.389 178.543,43.252 C178.549,43.25 178.553,43.25 178.561,43.248 C178.622,43.247 178.68,43.247 178.737,43.244 C184.508,42.943 188.887,39.304 190.165,33.725 C190.866,30.664 190.866,27.587 190.19,24.524 C189.125,19.716 186.211,16.623 181.42,15.342 L181.42,15.342 Z M181.787,32.167 C181.758,32.349 181.728,32.527 181.687,32.706 C181.107,35.274 179.244,36.662 176.757,36.548 C174.083,36.423 172.249,34.861 171.991,32.19 C171.805,30.239 171.788,28.246 171.95,26.293 C172.208,23.209 174.134,21.523 177.028,21.58 C179.401,21.626 181.096,22.973 181.7,25.258 C182.246,27.556 181.842,31.645 181.787,32.167 Z" id="Shape"></path>
            </g>
        </g>
    </g>
</svg>