<?xml version="1.0" encoding="UTF-8"?>
<svg width="380px" height="512px" viewBox="0 0 380 512" version="1.1" xmlns="http://www.w3.org/2000/svg" xmlns:xlink="http://www.w3.org/1999/xlink">
    <!-- Generator: Sketch 57.1 (83088) - https://sketch.com -->
    <title>Group</title>
    <desc>Created with Sketch.</desc>
    <g id="Page-2" stroke="none" stroke-width="1" fill="none" fill-rule="evenodd">
        <g id="Group" fill="#F0F0F0" fill-rule="nonzero">
            <g transform="translate(117.000000, 0.000000)" id="Path">
                <path d="M70.464,94.869 C46.806,111.508 19.993,130.367 5.626,161.568 C-19.328,216.003 56.688,275.38 59.937,277.881 C60.692,278.462 61.596,278.752 62.497,278.752 C63.454,278.752 64.412,278.425 65.19,277.773 C66.699,276.511 67.127,274.367 66.221,272.621 C65.946,272.091 38.66,219.091 39.674,181.069 C40.033,167.826 58.566,152.803 78.186,136.898 C96.156,122.33 116.526,105.819 128.444,86.504 C154.608,43.988 125.528,2.182 125.231,1.764 C124.076,0.142 121.944,-0.445 120.121,0.354 C118.3,1.158 117.291,3.127 117.707,5.074 C117.766,5.351 123.421,32.997 107.685,61.48 C101.203,73.25 86.959,83.268 70.464,94.869 Z"></path>
                <path d="M170.137,113.617 C171.806,112.36 172.296,110.067 171.287,108.237 C170.276,106.407 168.076,105.6 166.122,106.342 C162.103,107.87 67.706,144.257 67.706,188.222 C67.706,218.529 80.652,234.539 90.105,246.231 C93.813,250.817 97.014,254.777 98.069,258.158 C101.039,267.901 94.003,285.511 91.044,291.475 C90.191,293.189 90.609,295.267 92.06,296.519 C92.844,297.196 93.823,297.54 94.803,297.54 C95.637,297.54 96.475,297.292 97.199,296.788 C98.822,295.66 136.866,268.762 130.043,236.355 C127.501,224.037 121.448,215.037 116.107,207.095 C107.833,194.79 101.857,185.902 110.923,169.486 C121.545,150.338 169.65,113.981 170.137,113.617 Z"></path>
            </g>
            <g transform="translate(0.000000, 269.000000)" id="Path">
                <path d="M41.418,29.236 C39.8,34.081 40.564,38.887 43.625,43.139 C53.858,57.346 90.105,65.168 145.693,65.168 C145.696,65.168 145.698,65.168 145.7,65.168 C153.232,65.168 161.184,65.02 169.329,64.728 C258.204,61.547 291.168,33.859 292.528,32.682 C294.01,31.399 294.406,29.263 293.485,27.535 C292.563,25.808 290.576,24.94 288.677,25.463 C257.376,34.009 198.929,37.043 158.389,37.043 C113.026,37.043 89.924,33.775 84.268,31.362 C87.17,27.377 105.07,20.261 127.251,15.898 C129.371,15.482 130.828,13.524 130.618,11.374 C130.408,9.224 128.602,7.584 126.441,7.584 C113.439,7.584 48.234,8.628 41.418,29.236 Z"></path>
                <path d="M338.812,0.718 C320.481,0.718 303.098,9.906 302.366,10.295 C300.671,11.203 299.811,13.147 300.276,15.015 C300.743,16.88 302.42,18.191 304.343,18.193 C304.732,18.193 343.445,18.51 346.951,40.629 C350.057,59.711 310.322,90.629 294.749,100.933 C293.067,102.046 292.414,104.196 293.195,106.056 C293.86,107.639 295.401,108.629 297.063,108.629 C297.353,108.629 297.647,108.599 297.939,108.537 C301.635,107.746 388.345,88.638 379.177,38.153 C373.584,7.213 354.138,0.718 338.812,0.718 Z"></path>
                <path d="M279.347,94.755 C279.649,93.138 278.976,91.493 277.63,90.548 L256.839,75.985 C255.825,75.275 254.544,75.052 253.354,75.367 C253.137,75.422 231.395,81.138 199.829,84.643 C187.301,86.048 173.269,86.79 159.247,86.79 C127.689,86.79 107.055,83.082 104.05,80.362 C103.652,79.598 103.778,79.251 103.849,79.058 C104.395,77.54 107.321,75.736 109.207,75.022 C111.29,74.251 112.413,71.989 111.765,69.865 C111.119,67.738 108.928,66.487 106.766,67.006 C85.91,72.039 75.712,79.077 76.454,87.924 C77.772,103.61 114.104,111.661 144.819,113.789 C149.236,114.091 154.013,114.244 159.014,114.244 C159.017,114.244 159.019,114.244 159.022,114.244 C210.096,114.244 275.572,98.219 276.226,98.056 C277.825,97.666 279.044,96.375 279.347,94.755 Z"></path>
                <path d="M122.602,128.419 C124.177,127.395 124.875,125.448 124.316,123.655 C123.759,121.862 122.082,120.684 120.198,120.70861 C117.403,120.783 92.849,121.891 91.13,137.524 C90.61,142.196 91.948,146.465 95.109,150.21 C103.925,160.658 127.723,166.868 167.85,169.194 C172.597,169.479 177.419,169.622 182.184,169.622 C233.199,169.622 267.557,153.649 268.996,152.969 C270.391,152.309 271.311,150.938 271.393,149.398 C271.475,147.858 270.706,146.397 269.39,145.592 L243.115,129.552 C242.203,128.996 241.112,128.812 240.072,129.025 C239.906,129.06 223.223,132.52 198.046,135.938 C193.282,136.586 187.316,136.915 180.316,136.915 C155.166,136.915 127.192,132.806 121.827,130.115 C121.749,129.613 121.848,128.975 122.602,128.419 Z"></path>
                <path d="M158.408,217.85 C275.262,217.751 337.979,196.97 350.061,183.893 C354.338,179.267 354.8,174.887 354.437,172.026 C353.539,164.986 347.126,160.676 346.399,160.208 C344.645,159.08 342.291,159.375 340.923,160.953 C339.558,162.531 339.526,164.837 340.896,166.414 C341.633,167.362 342.059,168.949 339.904,171.106 C335.074,175.617 286.359,189.31 205.248,193.424 C194.137,194.001 182.483,194.295 170.612,194.297 C97.989,194.297 44.84,184.349 37.863,178.553 C40.552,174.689 59.352,168.516 79.345,165.024 C81.598,164.631 83.12,162.508 82.771,160.248 C82.422,157.989 80.339,156.434 78.062,156.729 C77.498,156.806 75.584,156.92 73.368,157.056 C40.38,159.07 2.259,163.559 0.27,180.556 C-0.334,185.735 1.205,190.437 4.846,194.529 C13.755,204.539 39.362,217.848 158.404,217.848 C158.406,217.85 158.406,217.85 158.408,217.85 Z"></path>
                <path d="M373.013,187.578 C371.361,186.814 369.409,187.2 368.177,188.53 C368.006,188.715 350.437,207.086 297.613,217.874 C277.39,221.926 239.43,223.981 184.787,223.981 C130.042,223.981 77.949,221.827 77.43,221.805 C75.254,221.699 73.393,223.281 73.097,225.423 C72.8,227.563 74.18,229.581 76.281,230.081 C76.823,230.209 131.416,242.999 206.06,242.999 C241.861,242.999 276.699,240.092 309.608,234.354 C370.969,223.597 375.265,193.171 375.418,191.881 C375.632,190.078 374.662,188.342 373.013,187.578 Z"></path>
            </g>
        </g>
    </g>
</svg>