<?xml version="1.0" encoding="UTF-8"?>
<svg width="498px" height="449px" viewBox="0 0 498 449" version="1.1" xmlns="http://www.w3.org/2000/svg" xmlns:xlink="http://www.w3.org/1999/xlink">
    <!-- Generator: Sketch 57.1 (83088) - https://sketch.com -->
    <title>Group</title>
    <desc>Created with Sketch.</desc>
    <g id="Page-2" stroke="none" stroke-width="1" fill="none" fill-rule="evenodd">
        <g id="Group" fill="#F0F0F0" fill-rule="nonzero">
            <path d="M497.3,226.5 C497.3,194 456.6,163.2 394.2,144.1 C408.6,80.5 402.2,29.9 374,13.7 C367.5,9.9 359.9,8.1 351.6,8.1 L351.6,30.4 C356.2,30.4 359.9,31.3 363,33 C376.6,40.8 382.5,70.5 377.9,108.7 C376.8,118.1 375,128 372.8,138.1 C353.2,133.3 331.8,129.6 309.3,127.2 C295.8,108.7 281.8,91.9 267.7,77.2 C300.3,46.9 330.9,30.3 351.7,30.3 L351.7,8 C351.7,8 351.7,8 351.7,8 C324.2,8 288.2,27.6 251.8,61.6 C215.4,27.8 179.4,8.4 151.9,8.4 L151.9,30.7 C172.6,30.7 203.3,47.2 235.9,77.3 C221.9,92 207.9,108.7 194.6,127.2 C172,129.6 150.6,133.3 131,138.2 C128.7,128.2 127,118.5 125.8,109.2 C121.1,71 126.9,41.3 140.4,33.4 C143.4,31.6 147.3,30.8 151.9,30.8 L151.9,8.5 C151.9,8.5 151.9,8.5 151.9,8.5 C143.5,8.5 135.9,10.3 129.3,14.1 C101.2,30.3 94.9,80.8 109.4,144.2 C47.2,163.4 6.7,194.1 6.7,226.5 C6.7,259 47.4,289.8 109.8,308.9 C95.4,372.5 101.8,423.1 130,439.3 C136.5,443.1 144.1,444.9 152.5,444.9 C180,444.9 216,425.3 252.4,391.3 C288.8,425.1 324.8,444.5 352.3,444.5 C360.7,444.5 368.3,442.7 374.9,438.9 C403,422.7 409.3,372.2 394.8,308.8 C456.8,289.7 497.3,258.9 497.3,226.5 Z M367.1,159.8 C363.4,172.7 358.8,186 353.6,199.3 C349.5,191.3 345.2,183.3 340.5,175.3 C335.9,167.3 331,159.5 326.1,151.9 C340.3,154 354,156.6 367.1,159.8 Z M321.3,266.3 C313.5,279.8 305.5,292.6 297.2,304.5 C282.3,305.8 267.2,306.5 252,306.5 C236.9,306.5 221.8,305.8 207,304.6 C198.7,292.7 190.6,280 182.8,266.6 C175.2,253.5 168.3,240.2 162,226.8 C168.2,213.4 175.2,200 182.7,186.9 C190.5,173.4 198.5,160.6 206.8,148.7 C221.7,147.4 236.8,146.7 252,146.7 C267.1,146.7 282.2,147.4 297,148.6 C305.3,160.5 313.4,173.2 321.2,186.6 C328.8,199.7 335.7,213 342,226.4 C335.7,239.8 328.8,253.2 321.3,266.3 Z M353.6,253.3 C359,266.7 363.6,280.1 367.4,293.1 C354.3,296.3 340.5,299 326.2,301.1 C331.1,293.4 336,285.5 340.6,277.4 C345.2,269.4 349.5,261.3 353.6,253.3 Z M252.2,360 C242.9,350.4 233.6,339.7 224.4,328 C233.4,328.4 242.6,328.7 251.9,328.7 C261.3,328.7 270.6,328.5 279.7,328 C270.7,339.7 261.4,350.4 252.2,360 Z M177.8,301.1 C163.6,299 149.9,296.4 136.8,293.2 C140.5,280.3 145.1,267 150.3,253.7 C154.4,261.7 158.7,269.7 163.4,277.7 C168.1,285.7 172.9,293.5 177.8,301.1 Z M251.7,93 C261,102.6 270.3,113.3 279.5,125 C270.5,124.6 261.3,124.3 252,124.3 C242.6,124.3 233.3,124.5 224.2,125 C233.2,113.3 242.5,102.6 251.7,93 Z M177.7,151.9 C172.8,159.6 167.9,167.5 163.3,175.6 C158.7,183.6 154.4,191.6 150.3,199.6 C144.9,186.2 140.3,172.8 136.5,159.8 C149.6,156.7 163.4,154 177.7,151.9 Z M87.2,277.1 C51.8,262 28.9,242.2 28.9,226.5 C28.9,210.8 51.8,190.9 87.2,175.9 C95.8,172.2 105.2,168.9 114.9,165.8 C120.6,185.4 128.1,205.8 137.4,226.7 C128.2,247.5 120.8,267.8 115.2,287.3 C105.3,284.2 95.9,280.8 87.2,277.1 Z M141,420 C127.4,412.2 121.5,382.5 126.1,344.3 C127.2,334.9 129,325 131.2,314.9 C150.8,319.7 172.2,323.4 194.7,325.8 C208.2,344.3 222.2,361.1 236.3,375.8 C203.7,406.1 173.1,422.7 152.3,422.7 C147.8,422.6 144,421.7 141,420 Z M378.2,343.8 C382.9,382 377.1,411.7 363.6,419.6 C360.6,421.4 356.7,422.2 352.1,422.2 C331.4,422.2 300.7,405.7 268.1,375.6 C282.1,360.9 296.1,344.2 309.4,325.7 C332,323.3 353.4,319.6 373,314.7 C375.3,324.8 377.1,334.5 378.2,343.8 Z M416.7,277.1 C408.1,280.8 398.7,284.1 389,287.2 C383.3,267.6 375.8,247.2 366.5,226.3 C375.7,205.5 383.1,185.2 388.7,165.7 C398.6,168.8 408,172.2 416.8,175.9 C452.2,191 475.1,210.8 475.1,226.5 C475,242.2 452.1,262.1 416.7,277.1 Z" id="Shape"></path>
            <circle id="Oval" cx="251.9" cy="226.5" r="45.7"></circle>
        </g>
    </g>
</svg>